<svg xmlns="http://www.w3.org/2000/svg" width="20.301" height="28.852" viewBox="0 0 20.301 28.852">
  <g id="Group_9" data-name="Group 9" transform="translate(-132.251 -130.939)">
    <g id="Group_7" data-name="Group 7" transform="translate(132.252 130.939)">
      <path id="Path_6" data-name="Path 6" d="M140.623,134.4l-.236.368h0l.236-.369Z" transform="translate(-129.943 -129.956)" fill="#a5a5a5"/>
      <path id="Path_7" data-name="Path 7" d="M149.062,133.507l-3.478-2.232a2.134,2.134,0,0,0-2.941.642l-1.533,2.388,7.06,4.53,1.533-2.388A2.134,2.134,0,0,0,149.062,133.507Z" transform="translate(-129.738 -130.939)" fill="#a5a5a5"/>
      <path id="Path_8" data-name="Path 8" d="M146.178,138.3a2.117,2.117,0,0,1-1.317.92l.514.33,1.04-1.619h0Z" transform="translate(-128.674 -128.955)" fill="#a5a5a5"/>
      <rect id="Rectangle_40" data-name="Rectangle 40" width="15.194" height="8.389" transform="matrix(0.54, -0.842, 0.842, 0.54, 0.741, 19.932)" fill="#a5a5a5"/>
      <path id="Path_9" data-name="Path 9" d="M140.564,134.689l-.8,1.25.514.33A2.119,2.119,0,0,1,140.564,134.689Z" transform="translate(-130.121 -129.875)" fill="#a5a5a5"/>
      <path id="Path_10" data-name="Path 10" d="M140.172,136.351l6.032,3.87a2.117,2.117,0,0,0,1.317-.92l.236-.368-7.06-4.53-.236.368A2.119,2.119,0,0,0,140.172,136.351Z" transform="translate(-130.017 -129.956)" fill="#a5a5a5"/>
      <path id="Path_11" data-name="Path 11" d="M132.252,155.1l6.8-3.508-6.436-4.131Z" transform="translate(-132.252 -126.25)" fill="#a5a5a5"/>
    </g>
  </g>
</svg>
